<svg width="28" height="28" viewBox="0 0 28 28" fill="none" xmlns="http://www.w3.org/2000/svg">
<path d="M2.00008 6.00008C1.26675 6.00008 0.666748 6.60008 0.666748 7.33342V24.6667C0.666748 26.1334 1.86675 27.3334 3.33341 27.3334H20.6667C21.4001 27.3334 22.0001 26.7334 22.0001 26.0001C22.0001 25.2667 21.4001 24.6667 20.6667 24.6667H4.66675C3.93341 24.6667 3.33341 24.0667 3.33341 23.3334V7.33342C3.33341 6.60008 2.73341 6.00008 2.00008 6.00008ZM24.6667 0.666748H8.66675C7.20008 0.666748 6.00008 1.86675 6.00008 3.33341V19.3334C6.00008 20.8001 7.20008 22.0001 8.66675 22.0001H24.6667C26.1334 22.0001 27.3334 20.8001 27.3334 19.3334V3.33341C27.3334 1.86675 26.1334 0.666748 24.6667 0.666748ZM22.0001 12.6667H11.3334C10.6001 12.6667 10.0001 12.0667 10.0001 11.3334C10.0001 10.6001 10.6001 10.0001 11.3334 10.0001H22.0001C22.7334 10.0001 23.3334 10.6001 23.3334 11.3334C23.3334 12.0667 22.7334 12.6667 22.0001 12.6667ZM16.6667 18.0001H11.3334C10.6001 18.0001 10.0001 17.4001 10.0001 16.6667C10.0001 15.9334 10.6001 15.3334 11.3334 15.3334H16.6667C17.4001 15.3334 18.0001 15.9334 18.0001 16.6667C18.0001 17.4001 17.4001 18.0001 16.6667 18.0001ZM22.0001 7.33342H11.3334C10.6001 7.33342 10.0001 6.73342 10.0001 6.00008C10.0001 5.26675 10.6001 4.66675 11.3334 4.66675H22.0001C22.7334 4.66675 23.3334 5.26675 23.3334 6.00008C23.3334 6.73342 22.7334 7.33342 22.0001 7.33342Z" fill="#444B53"/>
</svg>
