<svg width="58" height="32" viewBox="0 0 58 32" fill="none" xmlns="http://www.w3.org/2000/svg">
<path d="M42 0C33.164 0 26 7.163 26 16C26 24.837 33.164 32 42 32C50.836 32 58 24.837 58 16C58 7.163 50.836 0 42 0ZM42 28C38.249 28 34.902 26.277 32.702 23.581C33.705 20.547 35.711 18.122 38.228 16.89C36.288 15.646 35 13.475 35 11C35 7.376 37.754 4.395 41.284 4.036C41.522 4.022 41.758 4 42 4C42.242 4 42.478 4.022 42.716 4.036C46.246 4.395 49 7.376 49 11C49 13.475 47.712 15.646 45.772 16.89C48.29 18.123 50.295 20.548 51.298 23.581C49.098 26.277 45.751 28 42 28Z" fill="#F78065"/>
<path fill-rule="evenodd" clip-rule="evenodd" d="M12.71 19.29L17.3 14.7C17.69 14.31 17.69 13.68 17.3 13.29C16.91 12.9 16.28 12.9 15.89 13.29L12 17.17L8.12003 13.29C7.73003 12.9 7.10003 12.9 6.71003 13.29C6.32003 13.68 6.32003 14.31 6.71003 14.7L11.3 19.29C11.68 19.68 12.32 19.68 12.71 19.29Z" fill="#444B53"/>
</svg>
